<svg xmlns="http://www.w3.org/2000/svg"  viewBox="0 0 100 100" width="100px" height="100px"><path d="M 50.085938 17.001953 C 49.580938 16.984328 49.074344 17.049266 48.589844 17.197266 C 35.933844 21.005266 19.918344 43.891125 17.152344 50.453125 C 16.902344 51.027125 16.951203 51.697063 17.283203 52.289062 C 17.680203 53.000062 18.444609 53.531625 19.224609 53.640625 L 25.8125 54.587891 C 25.9445 54.604891 26.039062 54.725281 26.039062 54.863281 C 25.938063 63.742281 26.614469 71.479125 28.230469 79.953125 C 28.557469 81.655125 30.130453 82.988281 31.814453 82.988281 L 69.824219 82.988281 C 71.498219 82.988281 73.048563 81.649359 73.351562 79.943359 C 74.949562 71.174359 75.670594 62.561906 75.558594 53.628906 C 75.558594 53.482906 75.657625 53.36075 75.765625 53.34375 C 77.028625 53.17975 78.735125 52.890281 80.828125 52.488281 C 81.647125 52.341281 82.385 51.835016 82.75 51.166016 C 83.046 50.626016 83.081563 50.023844 82.851562 49.464844 C 81.573563 46.398844 78.868172 41.250031 75.451172 36.832031 C 75.414172 36.785031 75.393625 36.738672 75.390625 36.638672 C 75.007625 31.371672 74.012969 28.541563 73.417969 26.851562 C 73.330969 26.602562 73.251969 26.377047 73.167969 26.123047 C 72.866969 25.342047 72.218172 24.791297 71.451172 24.654297 L 67.287109 23.822266 C 66.606109 23.690266 65.909906 23.874406 65.378906 24.316406 C 64.995906 24.633406 64.733094 25.058344 64.621094 25.527344 C 64.438094 25.354344 64.25775 25.188781 64.09375 25.050781 C 59.53175 21.229781 55.310313 18.619781 51.570312 17.300781 C 51.093812 17.120281 50.590937 17.019578 50.085938 17.001953 z M 49.921875 19.001953 C 50.243875 19.001953 50.569812 19.059734 50.882812 19.177734 C 54.418813 20.423734 58.431594 22.916031 62.808594 26.582031 C 62.976594 26.724031 63.164469 26.899078 63.355469 27.080078 C 64.214469 27.891078 64.956406 28.59275 65.816406 28.21875 C 66.039406 28.12175 66.560547 27.804688 66.560547 26.929688 L 66.560547 26.048828 C 66.560547 25.953828 66.61225 25.889516 66.65625 25.853516 C 66.69025 25.825516 66.785203 25.764156 66.908203 25.785156 L 71.080078 26.619141 C 71.208078 26.642141 71.274156 26.768969 71.285156 26.792969 C 71.355156 27.009969 71.43825 27.248672 71.53125 27.513672 C 72.09225 29.109672 73.031578 31.781937 73.392578 36.710938 C 73.392578 37.185938 73.555188 37.648734 73.867188 38.052734 C 77.166187 42.319734 79.774906 47.281453 81.003906 50.189453 C 80.982906 50.263453 80.776844 50.465484 80.464844 50.521484 C 78.400844 50.919484 76.733422 51.200281 75.482422 51.363281 C 74.368422 51.538281 73.560547 52.493578 73.560547 53.642578 C 73.670547 62.457578 72.958766 70.943844 71.384766 79.589844 C 71.249766 80.347844 70.534219 80.988281 69.824219 80.988281 L 64.767578 80.988281 C 64.77891 79.299696 64.781529 76.78931 64.783203 74.511719 C 64.783336 74.506974 64.785156 74.502824 64.785156 74.498047 L 64.785156 73.710938 C 64.785033 73.653419 64.785281 73.579175 64.785156 73.519531 C 64.785228 73.186433 64.787223 72.795988 64.787109 72.5 C 64.787109 72.490977 64.781723 72.483515 64.78125 72.474609 C 64.777727 70.699409 64.774337 68.551369 64.769531 67.498047 C 64.768531 67.223047 64.544531 67 64.269531 67 L 64.267578 67 C 63.991578 67.001 63.768531 67.226953 63.769531 67.501953 C 63.775344 68.776015 63.78122 71.643257 63.785156 73.519531 C 63.785283 73.57982 63.785032 73.654767 63.785156 73.712891 C 63.784554 76.131478 63.780966 79.094146 63.767578 80.988281 L 60.027344 80.988281 C 60.039001 80.432971 60.115344 77.813782 60.998047 69.873047 C 61.027047 69.615047 60.854563 69.378172 60.601562 69.326172 C 60.598562 69.326172 58.853016 68.973484 56.291016 68.396484 C 55.570016 68.235484 55.077141 67.585516 55.119141 66.853516 L 55.197266 65.421875 C 55.552266 58.610875 56.144969 47.211359 62.417969 39.193359 C 62.693969 38.840359 63.087172 38.941469 63.201172 38.980469 C 63.461172 39.070469 63.765625 39.324328 63.765625 39.736328 C 63.640625 45.521328 63.687328 53.506031 63.736328 61.957031 L 63.751953 64.599609 C 63.753953 64.874609 63.976953 65.097656 64.251953 65.097656 L 64.253906 65.097656 C 64.529906 65.095656 64.753953 64.86975 64.751953 64.59375 L 64.736328 61.951172 C 64.687328 53.507172 64.641625 45.530047 64.765625 39.748047 C 64.765625 38.979047 64.267391 38.291156 63.525391 38.035156 C 62.820391 37.795156 62.077859 38.006172 61.630859 38.576172 C 55.161859 46.844172 54.558266 58.440141 54.197266 65.369141 L 54.121094 66.794922 C 54.050094 68.018922 54.869312 69.100094 56.070312 69.371094 C 57.873312 69.776094 59.275125 70.073844 59.953125 70.214844 C 59.210165 76.968522 59.049733 79.946355 59.013672 80.988281 L 45.996094 80.988281 C 45.983836 79.913317 45.964889 78.241003 45.966797 76.517578 C 45.966797 76.241578 45.74375 76.017578 45.46875 76.017578 L 45.466797 76.017578 C 45.191797 76.017578 44.966797 76.240625 44.966797 76.515625 C 44.964894 78.239546 44.984147 79.909674 44.998047 80.988281 L 40.976562 80.988281 C 40.981863 80.035151 40.993371 78.696645 41.007812 77.152344 C 41.031812 74.364344 41.060781 71.203359 41.050781 70.443359 C 41.048781 70.256359 40.940438 70.087906 40.773438 70.003906 C 38.016437 68.625906 36.943359 67.045141 36.943359 64.369141 L 37 41 C 37 40.448 37.448 40 38 40 C 38.552 40 39 40.448 39 41 L 39 56.5 C 39 57.327 39.673 58 40.5 58 C 41.327 58 42 57.327 42 56.5 L 42 41 C 42 40.448 42.448 40 43 40 C 43.552 40 44 40.448 44 41 L 44 56.5 C 44 57.327 44.673 58 45.5 58 C 46.327 58 47 57.327 47 56.5 L 47 41 C 47 40.448 47.448 40 48 40 C 48.552 40 49 40.447047 49 40.998047 L 48.970703 64.447266 C 48.660703 67.372266 47.696203 68.836969 45.283203 70.042969 C 45.112203 70.128969 45.005812 70.304141 45.007812 70.494141 C 45.011812 70.873141 45.009813 71.667953 45.007812 72.751953 L 45.007812 73.542969 C 45.007813 73.818969 45.230859 74.042969 45.505859 74.042969 L 45.507812 74.042969 C 45.782812 74.042969 46.007812 73.819922 46.007812 73.544922 L 46.007812 72.751953 C 46.008812 71.901953 46.010766 71.230922 46.009766 70.794922 C 48.548766 69.446922 49.62975 67.722953 49.96875 64.501953 L 50 41 C 50 39.897 49.103 39 48 39 C 46.897 39 46 39.897 46 41 L 46 56.5 C 46 56.775 45.775 57 45.5 57 C 45.225 57 45 56.775 45 56.5 L 45 41 C 45 39.897 44.103 39 43 39 C 41.897 39 41 39.897 41 41 L 41 56.5 C 41 56.775 40.775 57 40.5 57 C 40.225 57 40 56.775 40 56.5 L 40 41 C 40 39.897 39.103 39 38 39 C 36.897 39 36 39.896047 36 40.998047 L 35.943359 64.367188 C 35.943359 67.357188 37.138734 69.226859 40.052734 70.755859 C 40.054734 71.842859 40.028813 74.643531 40.007812 77.144531 C 39.993288 78.831737 39.983583 80.052208 39.978516 80.988281 L 31.814453 80.988281 C 31.083453 80.988281 30.341313 80.341172 30.195312 79.576172 C 28.604312 71.240172 27.940062 63.626 28.039062 54.875 C 28.039062 53.727 27.193938 52.751469 26.085938 52.605469 L 19.505859 51.658203 C 19.249859 51.622203 18.999188 51.338234 18.992188 51.240234 C 21.373188 45.589234 37.050969 22.757328 49.167969 19.111328 C 49.411969 19.037328 49.665875 19.001953 49.921875 19.001953 z"/></svg>